# xmcd
#
# Track frame offsets:
#	150
#	20475
#	37350
#	57450
#	77850
#	95325
#	109877
#	125695
#	148645
#	163720
#	181795
#	201820
#	218470
#	235495
#	255295
#	272770
#
# Disc length: 3849 seconds
#
# Revision: 5
# Processed by: cddbd v1.5.2PL0 Copyright (c) Steve Scherf et al.
# Submitted via: audiograbber 1.83.01
#
DISCID=e60f0710
DTITLE=Party Tyme - SYB1081
DYEAR=2002
DGENRE=Karaoke
TTITLE0=Twain, Shania - Man I Feel Like A Woman
TTITLE1=Keith, Toby - How Do You Like Me Now
TTITLE2=Hill, Faith - Breathe
TTITLE3=Lonestar - Amazed
TTITLE4=Dixie Chicks, The - Ready To Run
TTITLE5=Paisley, Brad - Wrapped Around
TTITLE6=Rimes, LeAnn - Big Deal
TTITLE7=McGraw, Tim - My Best Friend
TTITLE8=McBride, Martina - I Love You
TTITLE9=Rogers, Kenny - Buy Me A Rose
TTITLE10=Dixie Chicks, The - Cowboy Take Me Away
TTITLE11=Brock, Chad - Yes
TTITLE12=Rimes, LeAnn - I Need You
TTITLE13=Walker, Clay - Chain Of Love, The
TTITLE14=Andrews, Jessica - Who I Am
TTITLE15=Jackson, Alan - Pop A Top
EXTD=
EXTT0=
EXTT1=
EXTT2=
EXTT3=
EXTT4=
EXTT5=
EXTT6=
EXTT7=
EXTT8=
EXTT9=
EXTT10=
EXTT11=
EXTT12=
EXTT13=
EXTT14=
EXTT15=
PLAYORDER=
